<svg xmlns="http://www.w3.org/2000/svg" viewBox="0 0 720 720"><defs><style>.cls-1{fill:#034340;}.cls-1,.cls-2{stroke:#034340;stroke-miterlimit:10;}.cls-2{fill:#fff;}.cls-3{fill:#549e54;}.cls-4{fill:#044441;}.cls-5{fill:#014342;}.cls-6{fill:#128686;}.cls-7{fill:#2e9c9e;}.cls-8{fill:#2c9c9c;}</style></defs><g id="Layer_2" data-name="Layer 2"><g id="Layer_6" data-name="Layer 6"><circle class="cls-1" cx="360" cy="360" r="359.5"/><circle class="cls-2" cx="360" cy="360" r="321.5"/><path class="cls-3" d="M354,140.18a169.53,169.53,0,0,1,25.94,48.69c10,29.31,42,94.15,70.48,118.45s54.61,58.9,144.55,60.89l37.88,1S665.15,100.58,354,140.18Z"/><path class="cls-4" d="M453,192c-4.75-1.84,165,80,161,275l29,27S685,282,453,192Z"/><path class="cls-5" d="M61.05,478.5s-4.39-10.91-7.72-21.7S56,249,264,238c0,0,138,2,112.73,122.5C377,361,366,307,314,307c0,0-60,2-63.59,58.44C250.41,365.44,239,503,398,456c0,0,91-47,149-25,0,0,53,8,102.62,68.74L642.81,513S566,428,467,472c-50,26-92.34,40.08-115.67,41S312,524,223,478C223,478,125,428,61.05,478.5Z"/><path class="cls-6" d="M61.08,478.59S105,427,197,466s121.12,67.06,209,28c63-28,136.32-77.24,237.16,18.38,0,0-85.16,177.62-305.16,169.12C338,681.5,143.16,675.18,61.08,478.59Z"/><path class="cls-7" d="M63.65,484.86S137,463,211,502c0,0,75,50,118,53,0,0,56.79,2.58,87-19,49-35,109-46,135-42,0,0,60,5,87,28l6-11s-83-102-218-29c-104.17,56.33-184.67,2.37-200-5-52-25-117-43.5-166,2Z"/><path class="cls-8" d="M211,592s69,62,183,40c0,0,59-18,106-40,0,0,26-11,55-15,0,0-55-29-139,15C416,592,344,639,211,592Z"/></g></g></svg>