<svg xmlns="http://www.w3.org/2000/svg" viewBox="0 0 706 706"><defs><style>.cls-1{fill:#fff;stroke:#fff;stroke-miterlimit:10;stroke-width:2px;}.cls-2,.cls-4,.cls-5{fill:none;stroke:#d22d8e;stroke-linejoin:round;}.cls-2,.cls-4{stroke-width:5px;}.cls-2{fill-rule:evenodd;}.cls-3{fill:#1e74ab;}.cls-5{stroke-width:4px;}</style></defs><g id="Layer_2" data-name="Layer 2"><g id="ONDA_1" data-name="ONDA 1"><circle class="cls-1" cx="353" cy="353" r="352"/></g><g id="OJITO"><g id="RP"><g id="p22d"><path class="cls-2" d="M487.62,337.44c-35.92,51.19-92.29,77.72-122.4,85.55,20.45-22.65,54.84-80.58,54.84-148.47a214.55,214.55,0,0,0-4.93-45.21c45.61-42.15,98.42-58.89,105.28-54.18C529,181,536,268.53,487.62,337.44Z"/></g><g id="P1D"><path class="cls-2" d="M294.58,318.75c9,47.87,30.53,86.42,45.05,104-1.61-.44-3.3-.92-5-1.46l-.93-.29-1-.29c-1.5-.49-3.06-1-4.65-1.57-1.36-.48-2.76-1-4.19-1.52l-3.24-1.25-1.11-.44-2-.82-1.47-.62c-.71-.3-1.44-.6-2.16-.92l-1.15-.5-2.33-1c-2.35-1.07-4.73-2.2-7.16-3.4-.8-.4-1.62-.8-2.43-1.22l0,0c-1.21-.62-2.43-1.25-3.64-1.89l-1.25-.67c-.83-.44-1.65-.89-2.49-1.36l-2.51-1.39c-2.35-1.34-4.73-2.75-7.12-4.2l-.46-.29q-5.1-3.13-10.22-6.64c-2.56-1.75-5.13-3.58-7.68-5.48-4.16-3.1-8.31-6.39-12.39-9.89l-.26-.22c-.83-.72-1.66-1.44-2.48-2.17s-1.63-1.45-2.44-2.2c-.15-.12-.3-.26-.44-.39q-2.26-2.07-4.48-4.23c-.81-.78-1.62-1.57-2.41-2.37s-1.5-1.51-2.24-2.27c-.95-1-1.88-2-2.8-2.95-.69-.73-1.36-1.46-2-2.2s-1.48-1.64-2.21-2.47l-.11-.13c-.75-.86-1.5-1.73-2.24-2.62s-1.5-1.77-2.23-2.67-1.47-1.81-2.2-2.74-1.44-1.85-2.15-2.79c-.59-.76-1.16-1.54-1.73-2.32-.28-.36-.54-.73-.81-1.1l-1.65-2.31q-1.47-2.1-2.88-4.22t-2.57-4c-1.31-2.07-2.56-4.16-3.76-6.25-.41-.69-.81-1.4-1.2-2.1l-1-1.78c-.57-1-1.12-2.07-1.66-3.11-.39-.72-.75-1.43-1.12-2.14q-1.12-2.2-2.18-4.41c-.71-1.47-1.39-2.93-2.06-4.4-.33-.73-.66-1.46-1-2.19-.93-2.11-1.83-4.23-2.67-6.34s-1.67-4.23-2.44-6.33c-.38-1-.77-2.11-1.13-3.16l-.06-.14c-.34-1-.69-2-1-3s-.6-1.82-.9-2.73l-.27-.86c-.28-.9-.56-1.79-.83-2.69s-.62-2.09-.93-3.12c-.63-2.19-1.22-4.38-1.79-6.55-.47-1.87-.93-3.73-1.35-5.58q-.8-3.37-1.46-6.71-.56-2.74-1-5.43c-.63-3.56-1.18-7-1.62-10.45-.09-.59-.16-1.17-.23-1.75a.17.17,0,0,1,0-.07c-.19-1.53-.38-3.05-.53-4.54,0-.33-.07-.66-.1-1-.07-.69-.14-1.39-.2-2.07-.09-.86-.16-1.71-.23-2.54-.16-1.82-.28-3.61-.38-5.36,0-.66-.07-1.3-.1-1.94-.06-1.08-.11-2.13-.13-3.19,0-.77-.06-1.54-.08-2.29-.53-22.08,2.65-37.52,6.09-39.88,7.06-4.84,62.48,12.91,108.86,57.54a234.15,234.15,0,0,0,.44,86.05Z"/></g></g><g id="ONDA_2" data-name="ONDA 2"><path class="cls-3" d="M31,447.2c.37,0,.21,2.47,2.16,6.42a26.72,26.72,0,0,0,4.73,6.54,50.44,50.44,0,0,0,8.64,7c7,4.67,16.53,9.16,27.93,13.32A351.93,351.93,0,0,0,114.16,492C174,505.91,259.09,514.3,353,514.32S532,505.91,591.84,492a351.93,351.93,0,0,0,39.7-11.46c11.4-4.16,20.88-8.65,27.93-13.32a50.44,50.44,0,0,0,8.64-7,26.72,26.72,0,0,0,4.73-6.54c1.95-3.95,1.79-6.46,2.16-6.42.13,0,.23.59.29,1.8a16.07,16.07,0,0,1-1,5.22,25.86,25.86,0,0,1-4.45,7.45,49,49,0,0,1-8.63,8c-7.09,5.25-16.64,10.26-28.12,14.87a326.14,326.14,0,0,1-39.94,12.72C533,512.63,447.4,521.91,353,521.94s-180-9.31-240.12-24.72A326.88,326.88,0,0,1,72.93,484.5c-11.47-4.61-21-9.62-28.11-14.86a49.41,49.41,0,0,1-8.63-8,25.86,25.86,0,0,1-4.45-7.45,16.07,16.07,0,0,1-1-5.22C30.77,447.79,30.87,447.2,31,447.2Z"/></g><g id="ONDA_1-2" data-name="ONDA 1"><path class="cls-3" d="M69.73,434.81c.11,0,.17.52.42,1.45a10.57,10.57,0,0,0,2,3.76,22.78,22.78,0,0,0,5.25,4.64A58.32,58.32,0,0,0,86,449.23c13.46,6,34.38,11.16,60.48,15.5,52.28,8.68,125.6,13.92,206.55,13.94s154.27-5.26,206.55-13.94c26.11-4.34,47-9.54,60.48-15.5a58.32,58.32,0,0,0,8.57-4.57,22.78,22.78,0,0,0,5.25-4.64,10.41,10.41,0,0,0,2-3.76c.25-.93.31-1.45.42-1.45s.18.52.09,1.55a9.48,9.48,0,0,1-1.68,4.26,22.15,22.15,0,0,1-5.21,5.27,55.15,55.15,0,0,1-8.6,5.13c-13.52,6.66-34.51,12.43-60.7,17.25-52.44,9.64-126,15.45-207.17,15.47s-154.73-5.83-207.17-15.47c-26.19-4.82-47.18-10.59-60.7-17.25a55.15,55.15,0,0,1-8.6-5.13,22.15,22.15,0,0,1-5.21-5.27,9.48,9.48,0,0,1-1.68-4.26C69.55,435.33,69.67,434.81,69.73,434.81Z"/></g><g id="BASE"><path class="cls-4" d="M332.7,420.75c-29,10.4-67.18,17.67-106.81,11.25a189.65,189.65,0,0,1-21.09-4.7c-6.79,2.2-10.52,4.6-10.52,7.11,0,10.77,68.58,19.5,153.19,19.5s153.2-8.73,153.2-19.5c0-1.77-1.87-3.49-5.37-5.13q-6.62,1.61-13.49,2.72c-40.07,6.49-78.63-1-107.79-11.61l-10,3.18s-11.88,17.34-24.68-1Z"/></g><g id="P2I"><path class="cls-2" d="M507.05,302.76a201.83,201.83,0,0,1-19.43,34.68C459.19,378,418,403,387.09,415.58c-4.62,1.88-9,3.48-13.07,4.81-1.69-.62-3.34-1.23-5-1.87,15.79-19.26,37.27-56,46.49-100.74a213.38,213.38,0,0,1,91.51-15Z"/><path class="cls-2" d="M495.3,429.28q-6.62,1.61-13.49,2.72c-40.07,6.49-78.63-1-107.79-11.61,4.07-1.33,8.45-2.93,13.07-4.81C418,403,459.19,378,487.62,337.44a201.83,201.83,0,0,0,19.43-34.68C568.93,306,617.81,333.1,619.2,341.5,620.82,351.36,570,411.43,495.3,429.28Z"/></g><g id="P2I-2" data-name="P2I"><path class="cls-2" d="M199,301.24a204.06,204.06,0,0,0,19.51,35.06c28.55,41,69.94,66.29,101,79,4.64,1.9,9,3.51,13.12,4.86,1.7-.63,5.46,3.26,7.09,2.62-15.85-19.48-36.06-60.27-45.32-105.53a252.35,252.35,0,0,0-49-13.59A218.1,218.1,0,0,0,199,301.24Z"/><path class="cls-2" d="M210.76,429.16q6.65,1.62,13.55,2.74c40.23,6.57,79-1,108.23-11.73-4.09-1.35-8.48-3-13.12-4.86-31-12.72-72.4-38.05-101-79A204.06,204.06,0,0,1,199,301.24c-62.13,3.22-111.21,30.68-112.61,39.17C84.72,350.37,135.8,411.11,210.76,429.16Z"/></g><g id="PC"><path class="cls-2" d="M420.06,274.52a213.94,213.94,0,0,1-4.52,43.26c-9.22,44.76-30.7,81.48-46.49,100.74-1.32,1.62-2.6,3.1-3.83,4.47-5.94,6.59-10.7,10.19-13.11,10.19s-6.94-3.68-12.48-10.39c-14.52-17.62-36-56.17-45.05-104a234.15,234.15,0,0,1-.44-86.05c12-67.33,49.08-116.83,58-116.83s48.91,47.84,63,113.44A214.55,214.55,0,0,1,420.06,274.52Z"/></g><g id="OJITO-2" data-name="OJITO"><path class="cls-5" d="M349,176.72a8.49,8.49,0,1,1-8.48-8.94A8.72,8.72,0,0,1,349,176.72Z"/></g></g></g></svg>